<svg id="Layer_1" data-name="Layer 1" xmlns="http://www.w3.org/2000/svg" viewBox="0 0 360 360"><defs><style>.cls-1{fill:#332d2f;}.cls-2{fill:#dc1e34;}</style></defs><title>tek-logo-icon-color</title><path class="cls-1" d="M97.92,71.34H11.66l7.8,4.5c4.77,2.76,9.72,5.11,13.13,9.6A22,22,0,0,1,36.79,102c-.69,4.56-1.92,9.1-2.87,13.61l-1.18,5.57H95.82L60.2,288.66h63.4L159.2,121.44h35.58l.3-1.43,10.28-48.67Z"/><path class="cls-2" d="M266.24,71.34H210.94l-10.51,49.8h48c24.75,0,34.41,13.89,34.41,35.92,0,36.82-18.12,82.1-59.46,82.1H203.45l-63.27-.06-10.45,49.5,90.32.06c81.5-3.62,128.29-62.78,128.29-141.26C348.34,96.39,316.34,71.34,266.24,71.34Z"/><path class="cls-2" d="M270.4,161.66a.41.41,0,0,0-.3-.49l-4.49-1.09a.4.4,0,0,0-.49.3l-1.8,7.42-.68.2c.44-.31,1.59-2.89,1.38-3.61s-.89-.11-1,.31a10.71,10.71,0,0,1-2,3c-.82.74-1.27,3.66-1.44,4.1s-1.07,1-1.07,1l-1.24.66c-.68.36-1.87.93-2.64,1.25a11.86,11.86,0,0,1-3,.74c-.87.08-2,.14-2.41.14a1.86,1.86,0,0,1-1.07-.27,3.45,3.45,0,0,1-.06-1.65,10.93,10.93,0,0,0,0-2.45,8.54,8.54,0,0,0-.45-1.73,5.79,5.79,0,0,1-.06-2.33,18.29,18.29,0,0,0,.18-2.82c0-.64-.1-1.38-.15-1.64l-.16-.86c0-.21-.11-.54-.17-.72a1.22,1.22,0,0,0-.39-.55c-.16-.12-.12-.3.09-.4a.85.85,0,0,1,.73,0,2,2,0,0,1,.58.61,9.63,9.63,0,0,1,.45.9,3.87,3.87,0,0,0,.54.87,4.36,4.36,0,0,0,.75.63,2.88,2.88,0,0,0,.93.35,3.24,3.24,0,0,0,1,0,2.25,2.25,0,0,0,.74-.31l.6-.43c.17-.12.39-.29.49-.37a1.18,1.18,0,0,1,.5-.21,2,2,0,0,1,.5,0,.54.54,0,0,1,.32.25.75.75,0,0,0,.36.29,1.36,1.36,0,0,0,.46,0,.64.64,0,0,0,.38-.24,3.6,3.6,0,0,0,.33-.73,6.06,6.06,0,0,1,.43-1,3.57,3.57,0,0,1,.56-.71,1.25,1.25,0,0,1,.75-.25c.25,0,.63,0,.86,0a2.78,2.78,0,0,0,1.14-.85,2,2,0,0,1,1.28-.74c.3,0,.85-.38,1.23-.93a13.17,13.17,0,0,0,1-1.75A3.38,3.38,0,0,0,264,154l-.46-2.34a14.85,14.85,0,0,0-.89-2.74,7.72,7.72,0,0,0-1.49-2.13,6.28,6.28,0,0,0-2.34-1.13,13.26,13.26,0,0,0-3.14-.24,6.85,6.85,0,0,0-3,1c-.72.5-2.07,1.46-3,2.14a16.84,16.84,0,0,1-3.07,1.74,2.2,2.2,0,0,1-2.16-.3,5.82,5.82,0,0,1-1.1-1.58,3.09,3.09,0,0,0-.85-1.17,14,14,0,0,1-1.69-1.83A8.43,8.43,0,0,0,238,143.3a11.32,11.32,0,0,1-2.29-1.21c-.32-.28-1.05-1-1.62-1.5a8.2,8.2,0,0,0-2.74-1.52,16.1,16.1,0,0,1-3.76-2l-4-2.9a28,28,0,0,0-6.63-2.72c-2.56-.72-6-1.74-7.7-2.26a24.76,24.76,0,0,0-4-1,8.74,8.74,0,0,1-2-.34,14.85,14.85,0,0,0-2.18-.45,13.22,13.22,0,0,0-2.22,0c-.59,0-1.4.08-1.8.06s-.77.18-.81.43a.44.44,0,0,1-.45.41c-.2,0-.48.32-.62.76a2,2,0,0,1-.6,1,.83.83,0,0,0-.34.7,1.48,1.48,0,0,0,.19.75,1,1,0,0,1,.12.64,1.19,1.19,0,0,0,.2.78,1,1,0,0,0,.89.23,5.69,5.69,0,0,1,1.26-.07,6.21,6.21,0,0,1,1.44.36c.44.17.58.37.3.45a1,1,0,0,0-.64.66,10.25,10.25,0,0,0-.22,1.19,1.4,1.4,0,0,0,.24,1,.53.53,0,0,0,.61.14.84.84,0,0,0,.33-.53,1.48,1.48,0,0,1,.43-.71,1,1,0,0,1,.85-.24,1.28,1.28,0,0,0,1-.29l1.67-1.33a4.14,4.14,0,0,1,3.06-.48,28.18,28.18,0,0,1,3.47,1.07,25.11,25.11,0,0,1,3.85,2.21,23,23,0,0,0,5,2.47,15.59,15.59,0,0,1,3.52,1.52,31.25,31.25,0,0,1,2.67,2.9,49.15,49.15,0,0,0,4.05,4.21c1.19,1.07,1.62,2.64,1,3.48a28.8,28.8,0,0,0-2.33,3.69,27.58,27.58,0,0,1-3.51,4.73L219.6,164l-3.45,3.7a25.81,25.81,0,0,1-3.61,3.13,9.78,9.78,0,0,1-3.27,1.45,14.42,14.42,0,0,0-2.4.55,9.24,9.24,0,0,0-2.22,1.39,27.37,27.37,0,0,0-2.23,2.14,9.35,9.35,0,0,0-1.52,2.49,12.92,12.92,0,0,0-.65,2.82,11.07,11.07,0,0,1-.56,2.53,4.4,4.4,0,0,1-1.92,1.83,11.16,11.16,0,0,0-2.34,1.57L192,191a51.65,51.65,0,0,1-5.69,4.67,28.56,28.56,0,0,1-4.61,2.67c-.84.3-2.51,1-3.72,1.56a26.57,26.57,0,0,0-4.92,3.38c-1.5,1.3-3.91,3.32-5.37,4.48a58.39,58.39,0,0,1-5.1,3.61,15.39,15.39,0,0,1-2.85,1.49c-.22,0-.67,0-1-.06s-1-.14-1.48-.24l-1.6-.32a7.23,7.23,0,0,1-1.32-.41,1,1,0,0,0-1,.16,5.63,5.63,0,0,0-.88,1.83,13,13,0,0,0-.49,2.55,19.69,19.69,0,0,0,0,2.28,7.22,7.22,0,0,1-.26,2.29,15.27,15.27,0,0,0-.48,2.66,16.63,16.63,0,0,0,.08,3,24.59,24.59,0,0,0,.77,3.3,4.27,4.27,0,0,0,1.7,2.33,2.83,2.83,0,0,0,1.61.35,1.09,1.09,0,0,0,.43-1,15.28,15.28,0,0,1,0-1.78,8.92,8.92,0,0,1,.61-2.2,9.51,9.51,0,0,1,1.4-2.23c.47-.52,1.17-1.31,1.55-1.75a10,10,0,0,1,1.28-1.24,7.81,7.81,0,0,0,1-.92.94.94,0,0,0,.26-.84c-.09-.2.84-1.3,2.06-2.45a38.73,38.73,0,0,1,3.65-3.06,33.65,33.65,0,0,1,3.18-1.85c1-.48,2.59-1.34,3.61-1.91s2.65-1.51,3.6-2.1,2.6-1.47,3.65-2a20.06,20.06,0,0,1,2.9-1.14c.55-.13,1.7-.38,2.56-.55a6.78,6.78,0,0,0,2.4-1l1.73-1.39a22.89,22.89,0,0,1,4-2c1.7-.69,4.38-2,6-2.82s4.26-2.34,6-3.29S211,194,212,194.8a24,24,0,0,0,3.87,2.54c1.15.58,3.43,1.55,5.06,2.16s2.22,1.4,1.31,1.76a16,16,0,0,0-3.17,1.82,17.62,17.62,0,0,1-3.8,2c-1.25.46-4.39,1.52-7,2.35s-4.93,1.34-5.2,1.14a.62.62,0,0,0-.82,0,8,8,0,0,1-2.16,1c-1,.33-2.32.7-2.93.83s-.9,1-.65,1.91a17.07,17.07,0,0,0,1.47,3.41c.56,1,1.37,2.43,1.82,3.3s1.25,2.29,1.79,3.16,1.36,2.12,1.82,2.76a10.16,10.16,0,0,0,2.59,2.21,7,7,0,0,0,2.49,1,1.61,1.61,0,0,0,1.16-.81,1.25,1.25,0,0,0,0-1.29c-.24-.28-.71-.81-1-1.17a6.18,6.18,0,0,1-1-1.69,2.23,2.23,0,0,1-.12-1.48,6.27,6.27,0,0,0,.46-1.59c.11-.62.27-1.71.36-2.41a10.75,10.75,0,0,1,.8-2.6,4.46,4.46,0,0,1,1.94-1.9c.72-.31,2-.81,2.94-1.11a21.08,21.08,0,0,1,3.38-.76c1-.12,3.05-.48,4.65-.79s3.92-.87,5.16-1.22,3.28-.89,4.52-1.18a22.27,22.27,0,0,0,3.48-1.1,9.19,9.19,0,0,0,2-1.33,4.35,4.35,0,0,0,1.05-1.78,8.9,8.9,0,0,0,0-2.74,5.44,5.44,0,0,0-1-2.52l-1.81-1.88a14.05,14.05,0,0,1-1.72-2.29,21.49,21.49,0,0,0-3-3.4c-1.26-1.2-2.88-2.73-3.61-3.41a36.74,36.74,0,0,0-3.16-2.52c-1-.71-1.43-1.67-.94-2.15s1.44-1.28,2.1-1.81,1.93-1.42,2.82-2a23,23,0,0,1,2.77-1.54,52.8,52.8,0,0,0,5-3.08c2.12-1.42,4.06-1.76,4.32-.75a27,27,0,0,0,1.09,3.29,25.22,25.22,0,0,1,.92,2.52c.17.59.54,1.75.84,2.59a6.45,6.45,0,0,0,1.43,2.3,2.24,2.24,0,0,0,1.64.6,11.29,11.29,0,0,0,1.62-.57,21.45,21.45,0,0,1,2.52-.83,14,14,0,0,0,3.6-1.82,59.77,59.77,0,0,0,4.61-3.81l2.66-2.42.27-.15c1.21,0,3.64-1.5,3.87-1.78a2.15,2.15,0,0,1,1.36-.48c.45,0,1.44-.1,1.59-.68.09-.33-.07-.46-.23-.52l.16-.64c.65-.09,1.34-.48,1.41-1a.67.67,0,0,0-.51-.74,1,1,0,0,0,.74-1.2c-.06-.35-.47-.45-.81-.48l.16-.65c.86,0,1.38-.31,1.21-.74s-.62-.39-.94-.38Zm-3,8.71a.28.28,0,0,1-.34.2l-3-.74a.28.28,0,0,1-.2-.34l1.77-7.3a.28.28,0,0,1,.34-.21l3,.74a.28.28,0,0,1,.2.34Z"/></svg>